# xmcd
#
# Track frame offsets:
#	150
#	14933
#	30581
#	41592
#	52356
#	67173
#	80779
#	98726
#	113872
#	128757
#	142806
#	158865
#
# Disc length: 2278 seconds
#
# Revision: 2
# Processed by: cddbd v1.4PL0 Copyright (c) Steve Scherf et al.
# Submitted via: audiograbber 1.81.01
#
DISCID=ad08e40c
DTITLE=Renato Rascel - I Grandi Successi Originali cd2
DYEAR=1900
DGENRE=Pop
TTITLE0=Serenata de carta velina
TTITLE1=Te voglio bene tanto tanto
TTITLE2=Sapessi come è facile
TTITLE3=Stregniete nu poco a me
TTITLE4=Vediamoci fra qualche giorno
TTITLE5=Un burattino di nome Pinocchio
TTITLE6=Welcome to Roma mia
TTITLE7=Nevicava a Roma
TTITLE8=Padre brown
TTITLE9=Nel mio piccolo
TTITLE10=Benissimo
TTITLE11=C'era una volta il sole
EXTD=
EXTT0=
EXTT1=
EXTT2=
EXTT3=
EXTT4=
EXTT5=
EXTT6=
EXTT7=
EXTT8=
EXTT9=
EXTT10=
EXTT11=
PLAYORDER=
